# xmcd
#
# Track frame offsets: 
#        182
#        14070
#        26547
#        39965
#        52802
#        64287
#        75567
#        88097
#        100627
#        112705
#        124695
#        135637
#        148212
#        160242
#        171455
#        181262
#        191057
#        204365
#        214597
#
# Disc length: 2998 seconds
#
# Revision: 1
# Processed by: cddbd v1.5.2PL0 Copyright (c) Steve Scherf et al.
# Submitted via: ExactAudioCopyFreeDBPlugin 1.0
#
DISCID=010bb413
DTITLE=Clyde McPhatter - Forgotten Angel - Disc 1
DYEAR=1900
DGENRE=Soul
TTITLE0=Lucille
TTITLE1=The Way I Feel
TTITLE2=Money Honey
TTITLE3=Let The Boogie Woogie Roll
TTITLE4=Don't Dog Me
TTITLE5=Such A Night
TTITLE6=Warm Your Heart
TTITLE7=Bip Bam
TTITLE8=The Bells Of St Mary's
TTITLE9=White Christmas
TTITLE10=Honey Love
TTITLE11=What'cha Gonna Do
TTITLE12=Three Thirty Three
TTITLE13=Seven Days
TTITLE14=Treasure Of Love
TTITLE15=Thirty Days
TTITLE16=Without Love (There is Nothing)
TTITLE17=Rock And Cry
TTITLE18=Heartaches
EXTD=
EXTT0=
EXTT1=
EXTT2=
EXTT3=
EXTT4=
EXTT5=
EXTT6=
EXTT7=
EXTT8=
EXTT9=
EXTT10=
EXTT11=
EXTT12=
EXTT13=
EXTT14=
EXTT15=
EXTT16=
EXTT17=
EXTT18=
PLAYORDER=
